<svg id="visual" viewBox="0 0 450 3000" width="450" height="3000" xmlns="http://www.w3.org/2000/svg" xmlns:xlink="http://www.w3.org/1999/xlink" version="1.1"><path d="M334 3000L333 2750L328 2500L340 2250L281 2000L321 1750L267 1500L338 1250L334 1000L282 750L296 500L265 250L320 0L450 0L450 250L450 500L450 750L450 1000L450 1250L450 1500L450 1750L450 2000L450 2250L450 2500L450 2750L450 3000Z" fill="#141e46"></path><path d="M319 3000L288 2750L320 2500L327 2250L320 2000L348 1750L320 1500L310 1250L317 1000L316 750L341 500L351 250L299 0L450 0L450 250L450 500L450 750L450 1000L450 1250L450 1500L450 1750L450 2000L450 2250L450 2500L450 2750L450 3000Z" fill="#312555"></path><path d="M324 3000L304 2750L316 2500L352 2250L361 2000L317 1750L317 1500L336 1250L336 1000L334 750L361 500L352 250L318 0L450 0L450 250L450 500L450 750L450 1000L450 1250L450 1500L450 1750L450 2000L450 2250L450 2500L450 2750L450 3000Z" fill="#4e2c61"></path><path d="M337 3000L376 2750L347 2500L341 2250L340 2000L372 1750L333 1500L365 1250L331 1000L357 750L357 500L359 250L335 0L450 0L450 250L450 500L450 750L450 1000L450 1250L450 1500L450 1750L450 2000L450 2250L450 2500L450 2750L450 3000Z" fill="#6b316a"></path><path d="M374 3000L379 2750L351 2500L372 2250L351 2000L366 1750L361 1500L354 1250L354 1000L382 750L383 500L385 250L375 0L450 0L450 250L450 500L450 750L450 1000L450 1250L450 1500L450 1750L450 2000L450 2250L450 2500L450 2750L450 3000Z" fill="#89366f"></path><path d="M391 3000L386 2750L363 2500L388 2250L370 2000L377 1750L390 1500L399 1250L378 1000L369 750L392 500L370 250L398 0L450 0L450 250L450 500L450 750L450 1000L450 1250L450 1500L450 1750L450 2000L450 2250L450 2500L450 2750L450 3000Z" fill="#a63c70"></path><path d="M414 3000L407 2750L399 2500L411 2250L389 2000L379 1750L382 1500L393 1250L385 1000L412 750L389 500L399 250L393 0L450 0L450 250L450 500L450 750L450 1000L450 1250L450 1500L450 1750L450 2000L450 2250L450 2500L450 2750L450 3000Z" fill="#c1456e"></path><path d="M424 3000L419 2750L423 2500L417 2250L425 2000L416 1750L425 1500L419 1250L400 1000L402 750L424 500L425 250L402 0L450 0L450 250L450 500L450 750L450 1000L450 1250L450 1500L450 1750L450 2000L450 2250L450 2500L450 2750L450 3000Z" fill="#da5169"></path><path d="M428 3000L434 2750L424 2500L432 2250L423 2000L429 1750L421 1500L418 1250L427 1000L419 750L433 500L432 250L427 0L450 0L450 250L450 500L450 750L450 1000L450 1250L450 1500L450 1750L450 2000L450 2250L450 2500L450 2750L450 3000Z" fill="#ef6161"></path></svg>