<svg width="174" height="16" viewBox="0 0 174 16" fill="none" xmlns="http://www.w3.org/2000/svg">
<path d="M4.32 2.288C4.064 2.288 3.85067 2.208 3.68 2.048C3.52 1.87733 3.44 1.65867 3.44 1.392C3.44 1.136 3.52 0.927999 3.68 0.768C3.85067 0.608 4.064 0.528 4.32 0.528C4.576 0.528 4.784 0.608 4.944 0.768C5.11467 0.927999 5.2 1.136 5.2 1.392C5.2 1.65867 5.11467 1.87733 4.944 2.048C4.784 2.208 4.576 2.288 4.32 2.288ZM2.448 4.512V4.08H4.992V12.832C4.992 13.312 4.912 13.76 4.752 14.176C4.60267 14.592 4.352 14.928 4 15.184C3.648 15.44 3.184 15.568 2.608 15.568C2.08533 15.568 1.63733 15.424 1.264 15.136C0.890667 14.8587 0.656 14.3787 0.56 13.696L1.424 13.456C1.46667 14.0747 1.584 14.496 1.776 14.72C1.968 14.944 2.21333 15.056 2.512 15.056C2.88533 15.056 3.17333 14.9067 3.376 14.608C3.57867 14.32 3.68 13.7707 3.68 12.96V5.376C3.68 5.00267 3.664 4.784 3.632 4.72C3.6 4.656 3.49867 4.61333 3.328 4.592L2.448 4.512ZM14.4825 7.872V8.192C14.4825 9.39733 14.1785 10.3627 13.5705 11.088C12.9732 11.8027 12.1198 12.16 11.0105 12.16C9.91183 12.16 9.0585 11.8027 8.4505 11.088C7.85317 10.3627 7.5545 9.39733 7.5545 8.192V7.872C7.5545 6.67733 7.85317 5.72267 8.4505 5.008C9.04783 4.28267 9.90117 3.92 11.0105 3.92C12.1198 3.92 12.9732 4.28267 13.5705 5.008C14.1785 5.72267 14.4825 6.67733 14.4825 7.872ZM13.0425 7.552C13.0425 6.44267 12.8665 5.648 12.5145 5.168C12.1732 4.67733 11.6718 4.432 11.0105 4.432C10.3598 4.432 9.8585 4.67733 9.5065 5.168C9.16517 5.648 8.9945 6.44267 8.9945 7.552V8.512C8.9945 9.632 9.16517 10.4373 9.5065 10.928C9.8585 11.408 10.3598 11.648 11.0105 11.648C11.6718 11.648 12.1732 11.408 12.5145 10.928C12.8665 10.4373 13.0425 9.632 13.0425 8.512V7.552ZM22.2443 5.28L19.9083 12H18.8683L16.5163 5.28C16.4096 4.97067 16.3296 4.784 16.2763 4.72C16.2229 4.656 16.1109 4.61333 15.9403 4.592L15.1242 4.512V4.08H18.7723V4.512L17.9563 4.592C17.7856 4.61333 17.6949 4.656 17.6843 4.72C17.6736 4.77333 17.7216 4.96 17.8283 5.28L19.7643 10.848L21.6683 5.28C21.7749 4.96 21.8229 4.77333 21.8123 4.72C21.8016 4.656 21.7109 4.61333 21.5403 4.592L20.7083 4.512V4.08H23.6203V4.512L22.8043 4.592C22.6336 4.61333 22.5216 4.656 22.4683 4.72C22.4256 4.77333 22.3509 4.96 22.2443 5.28ZM26.0258 2.288C25.7698 2.288 25.5564 2.208 25.3858 2.048C25.2258 1.87733 25.1458 1.65867 25.1458 1.392C25.1458 1.136 25.2258 0.927999 25.3858 0.768C25.5564 0.608 25.7698 0.528 26.0258 0.528C26.2818 0.528 26.4898 0.608 26.6498 0.768C26.8204 0.927999 26.9058 1.136 26.9058 1.392C26.9058 1.65867 26.8204 1.87733 26.6498 2.048C26.4898 2.208 26.2818 2.288 26.0258 2.288ZM24.1538 4.512V4.08H26.6978V10.704C26.6978 11.0773 26.7138 11.296 26.7458 11.36C26.7778 11.424 26.8791 11.4667 27.0498 11.488L27.9298 11.584V12H24.1538V11.584L25.0338 11.488C25.2044 11.4667 25.3058 11.424 25.3378 11.36C25.3698 11.296 25.3858 11.0773 25.3858 10.704V5.376C25.3858 5.00267 25.3698 4.784 25.3378 4.72C25.3058 4.656 25.2044 4.61333 25.0338 4.592L24.1538 4.512ZM35.751 10.176C35.559 10.9013 35.1963 11.4133 34.663 11.712C34.1403 12.0107 33.559 12.16 32.919 12.16C31.735 12.16 30.8497 11.8027 30.263 11.088C29.6763 10.3627 29.383 9.39733 29.383 8.192V7.872C29.383 6.67733 29.6657 5.72267 30.231 5.008C30.7963 4.28267 31.6177 3.92 32.695 3.92C33.271 3.92 33.7937 4.03733 34.263 4.272C34.743 4.50667 35.1217 4.85333 35.399 5.312C35.687 5.77067 35.831 6.34133 35.831 7.024C35.831 7.344 35.799 7.68 35.735 8.032H30.823V8.512C30.823 9.632 30.9937 10.4373 31.335 10.928C31.687 11.408 32.2523 11.648 33.031 11.648C33.5217 11.648 33.927 11.52 34.247 11.264C34.5777 11.008 34.7963 10.5653 34.903 9.936L35.751 10.176ZM32.695 4.432C32.0657 4.432 31.5963 4.672 31.287 5.152C30.9777 5.632 30.823 6.42133 30.823 7.52H34.423V7.472C34.4443 7.33333 34.4603 7.2 34.471 7.072C34.4817 6.93333 34.487 6.81067 34.487 6.704C34.487 5.904 34.3217 5.328 33.991 4.976C33.6603 4.61333 33.2283 4.432 32.695 4.432ZM38.7043 12.16C38.4376 12.16 38.2189 12.0747 38.0483 11.904C37.8883 11.7333 37.8083 11.5147 37.8083 11.248C37.8083 10.9813 37.8883 10.768 38.0483 10.608C38.2189 10.4373 38.4376 10.352 38.7043 10.352C38.9816 10.352 39.2056 10.4373 39.3763 10.608C39.5469 10.768 39.6323 10.9813 39.6323 11.248C39.6323 11.5147 39.5469 11.7333 39.3763 11.904C39.2056 12.0747 38.9816 12.16 38.7043 12.16ZM41.2293 0.591999V0.16H43.7733V10.704C43.7733 11.0773 43.7893 11.296 43.8213 11.36C43.8533 11.424 43.9546 11.4667 44.1253 11.488L45.0052 11.584V12H41.2293V11.584L42.1093 11.488C42.2799 11.4667 42.3813 11.424 42.4133 11.36C42.4453 11.296 42.4613 11.0773 42.4613 10.704V1.456C42.4613 1.08267 42.4453 0.864 42.4133 0.799999C42.3813 0.735999 42.2799 0.693333 42.1093 0.672L41.2293 0.591999ZM52.6208 12.112C51.7888 12.112 51.2981 11.728 51.1488 10.96C50.7754 11.3867 50.3648 11.696 49.9168 11.888C49.4688 12.0693 49.0261 12.16 48.5888 12.16C47.8421 12.16 47.2928 11.952 46.9408 11.536C46.5888 11.12 46.4128 10.6187 46.4128 10.032C46.4128 9.40267 46.6261 8.90667 47.0528 8.544C47.4901 8.17067 48.2421 7.984 49.3088 7.984H51.1168V6.688C51.1168 5.83467 50.9674 5.248 50.6688 4.928C50.3808 4.59733 49.9861 4.432 49.4848 4.432C49.1648 4.432 48.8768 4.496 48.6208 4.624C48.3648 4.752 48.1781 4.98667 48.0608 5.328C47.9541 5.65867 47.9434 6.144 48.0288 6.784L46.7648 6.592C46.7114 6.09067 46.7754 5.64267 46.9568 5.248C47.1488 4.84267 47.4581 4.52267 47.8848 4.288C48.3221 4.04267 48.8661 3.92 49.5168 3.92C50.2954 3.92 50.8928 4.05333 51.3088 4.32C51.7248 4.576 52.0128 4.912 52.1728 5.328C52.3434 5.744 52.4288 6.19733 52.4288 6.688V10.288C52.4288 10.832 52.4874 11.1733 52.6048 11.312C52.7328 11.4507 52.8714 11.52 53.0208 11.52C53.1168 11.52 53.2181 11.4987 53.3248 11.456C53.4314 11.4027 53.5488 11.3227 53.6768 11.216L53.9648 11.616C53.8048 11.7547 53.6128 11.872 53.3888 11.968C53.1754 12.064 52.9194 12.112 52.6208 12.112ZM49.0368 11.488C49.3354 11.488 49.6554 11.408 49.9968 11.248C50.3488 11.0773 50.7221 10.7413 51.1168 10.24V8.496H49.4848C48.8874 8.496 48.4501 8.61867 48.1728 8.864C47.9061 9.09867 47.7728 9.46667 47.7728 9.968C47.7728 10.448 47.8741 10.8213 48.0768 11.088C48.2901 11.3547 48.6101 11.488 49.0368 11.488ZM54.6694 4.512V4.08H57.1334V5.36C57.5067 4.85867 57.88 4.496 58.2534 4.272C58.6374 4.03733 59.0267 3.92 59.4214 3.92C59.7627 3.92 60.0827 4.02133 60.3814 4.224C60.68 4.42667 60.9307 4.752 61.1334 5.2L60.0934 5.824C59.9334 5.44 59.752 5.17333 59.5494 5.024C59.3467 4.87467 59.1227 4.8 58.8774 4.8C58.6107 4.8 58.344 4.88533 58.0774 5.056C57.8214 5.22667 57.5334 5.54667 57.2134 6.016V10.704C57.2134 11.0773 57.2294 11.3013 57.2614 11.376C57.2934 11.44 57.3947 11.4773 57.5654 11.488L58.7654 11.584V12H54.6694V11.584L55.5494 11.488C55.72 11.4667 55.8214 11.424 55.8534 11.36C55.8854 11.296 55.9014 11.0773 55.9014 10.704V5.376C55.9014 5.00267 55.8854 4.784 55.8534 4.72C55.8214 4.656 55.72 4.61333 55.5494 4.592L54.6694 4.512ZM70.2606 11.584V12H67.7966V10.72C67.4233 11.2213 66.9966 11.5893 66.5166 11.824C66.0473 12.048 65.578 12.16 65.1086 12.16C64.3513 12.16 63.7593 11.92 63.3326 11.44C62.9166 10.9493 62.7086 10.2613 62.7086 9.376V5.376C62.7086 5.00267 62.6926 4.784 62.6606 4.72C62.6286 4.656 62.5273 4.61333 62.3566 4.592L61.4766 4.512V4.08H64.0206V9.36C64.0206 10.1493 64.138 10.7093 64.3726 11.04C64.618 11.36 64.97 11.52 65.4286 11.52C65.77 11.52 66.1433 11.4133 66.5486 11.2C66.9646 10.9867 67.354 10.576 67.7166 9.968V5.376C67.7166 5.00267 67.7006 4.784 67.6686 4.72C67.6366 4.64533 67.5353 4.60267 67.3646 4.592L66.1646 4.512V4.08H69.0286V10.704C69.0286 11.0773 69.0446 11.296 69.0766 11.36C69.1086 11.424 69.21 11.4667 69.3806 11.488L70.2606 11.584ZM78.0948 10.176C77.9028 10.9013 77.5401 11.4133 77.0068 11.712C76.4841 12.0107 75.9028 12.16 75.2628 12.16C74.0788 12.16 73.1934 11.8027 72.6068 11.088C72.0201 10.3627 71.7268 9.39733 71.7268 8.192V7.872C71.7268 6.67733 72.0094 5.72267 72.5748 5.008C73.1401 4.28267 73.9614 3.92 75.0388 3.92C75.6148 3.92 76.1374 4.03733 76.6068 4.272C77.0868 4.50667 77.4654 4.85333 77.7428 5.312C78.0308 5.77067 78.1748 6.34133 78.1748 7.024C78.1748 7.344 78.1428 7.68 78.0788 8.032H73.1668V8.512C73.1668 9.632 73.3374 10.4373 73.6788 10.928C74.0308 11.408 74.5961 11.648 75.3748 11.648C75.8654 11.648 76.2708 11.52 76.5908 11.264C76.9214 11.008 77.1401 10.5653 77.2468 9.936L78.0948 10.176ZM75.0388 4.432C74.4094 4.432 73.9401 4.672 73.6308 5.152C73.3214 5.632 73.1668 6.42133 73.1668 7.52H76.7668V7.472C76.7881 7.33333 76.8041 7.2 76.8148 7.072C76.8254 6.93333 76.8308 6.81067 76.8308 6.704C76.8308 5.904 76.6654 5.328 76.3348 4.976C76.0041 4.61333 75.5721 4.432 75.0388 4.432ZM90.981 14.672C90.3943 14.9707 89.733 15.1947 88.997 15.344C88.2717 15.4933 87.5783 15.568 86.917 15.568C85.8823 15.568 84.949 15.392 84.117 15.04C83.285 14.6987 82.5703 14.2133 81.973 13.584C81.3757 12.9653 80.917 12.2293 80.597 11.376C80.277 10.5227 80.117 9.58933 80.117 8.576C80.117 7.49867 80.2877 6.50133 80.629 5.584C80.9703 4.656 81.4503 3.85067 82.069 3.168C82.6983 2.47467 83.4397 1.936 84.293 1.552C85.157 1.15733 86.101 0.959999 87.125 0.959999C88.0637 0.959999 88.9277 1.13067 89.717 1.472C90.5063 1.80267 91.1943 2.26667 91.781 2.864C92.3677 3.46133 92.821 4.16 93.141 4.96C93.461 5.76 93.621 6.624 93.621 7.552C93.621 8.39467 93.4717 9.15733 93.173 9.84C92.885 10.512 92.485 11.0453 91.973 11.44C91.4717 11.8347 90.8957 12.032 90.245 12.032C89.733 12.032 89.2957 11.904 88.933 11.648C88.581 11.3813 88.3623 11.0027 88.277 10.512C87.9143 11.0773 87.5303 11.488 87.125 11.744C86.7303 11.9893 86.3143 12.112 85.877 12.112C85.3117 12.112 84.837 11.936 84.453 11.584C84.0797 11.232 83.8183 10.752 83.669 10.144C83.5303 9.52533 83.5303 8.832 83.669 8.064L83.733 7.712C83.861 7.01867 84.0903 6.42667 84.421 5.936C84.7623 5.44533 85.1623 5.072 85.621 4.816C86.0903 4.54933 86.5863 4.416 87.109 4.416C87.5783 4.416 87.973 4.51733 88.293 4.72C88.6237 4.912 88.901 5.17333 89.125 5.504C89.4237 5.20533 89.685 4.896 89.909 4.576H90.469L89.573 9.552C89.477 10.096 89.4557 10.512 89.509 10.8C89.5623 11.0773 89.6637 11.2693 89.813 11.376C89.9623 11.4827 90.133 11.536 90.325 11.536C90.8157 11.536 91.269 11.3653 91.685 11.024C92.101 10.6827 92.437 10.2133 92.693 9.616C92.949 9.01867 93.077 8.33067 93.077 7.552C93.077 6.69867 92.9277 5.904 92.629 5.168C92.341 4.432 91.9303 3.78667 91.397 3.232C90.8637 2.67733 90.2343 2.24533 89.509 1.936C88.7837 1.62667 87.989 1.472 87.125 1.472C86.1757 1.472 85.3063 1.65333 84.517 2.016C83.7277 2.37867 83.045 2.88533 82.469 3.536C81.893 4.176 81.445 4.928 81.125 5.792C80.8157 6.656 80.661 7.584 80.661 8.576C80.661 9.83467 80.917 10.9547 81.429 11.936C81.941 12.9067 82.6663 13.6693 83.605 14.224C84.5437 14.7787 85.6477 15.056 86.917 15.056C87.5143 15.056 88.1383 14.976 88.789 14.816C89.4503 14.656 90.0743 14.352 90.661 13.904L90.981 14.672ZM84.933 8.544C84.7623 9.54667 84.789 10.3093 85.013 10.832C85.237 11.344 85.5677 11.6 86.005 11.6C86.229 11.6 86.4583 11.5467 86.693 11.44C86.9383 11.3227 87.1943 11.1093 87.461 10.8C87.7383 10.48 88.0263 10.0213 88.325 9.424L88.901 6.144C88.4957 5.33333 87.925 4.928 87.189 4.928C86.6023 4.928 86.1383 5.168 85.797 5.648C85.4663 6.11733 85.2317 6.76267 85.093 7.584L84.933 8.544ZM101.939 10.176C101.747 10.9013 101.384 11.4133 100.851 11.712C100.328 12.0107 99.7465 12.16 99.1065 12.16C97.9225 12.16 97.0372 11.8027 96.4505 11.088C95.8638 10.3627 95.5705 9.39733 95.5705 8.192V7.872C95.5705 6.67733 95.8532 5.72267 96.4185 5.008C96.9838 4.28267 97.8052 3.92 98.8825 3.92C99.4585 3.92 99.9812 4.03733 100.451 4.272C100.931 4.50667 101.309 4.85333 101.587 5.312C101.875 5.77067 102.019 6.34133 102.019 7.024C102.019 7.344 101.987 7.68 101.923 8.032H97.0105V8.512C97.0105 9.632 97.1812 10.4373 97.5225 10.928C97.8745 11.408 98.4398 11.648 99.2185 11.648C99.7092 11.648 100.115 11.52 100.435 11.264C100.765 11.008 100.984 10.5653 101.091 9.936L101.939 10.176ZM98.8825 4.432C98.2532 4.432 97.7838 4.672 97.4745 5.152C97.1652 5.632 97.0105 6.42133 97.0105 7.52H100.611V7.472C100.632 7.33333 100.648 7.2 100.659 7.072C100.669 6.93333 100.675 6.81067 100.675 6.704C100.675 5.904 100.509 5.328 100.179 4.976C99.8478 4.61333 99.4158 4.432 98.8825 4.432ZM111.801 11.6V12H109.337V10.736C109.006 11.2267 108.638 11.5893 108.233 11.824C107.838 12.048 107.395 12.16 106.905 12.16C105.987 12.16 105.273 11.8187 104.761 11.136C104.259 10.4427 104.009 9.46667 104.009 8.208V7.888C104.009 6.68267 104.302 5.72267 104.889 5.008C105.486 4.28267 106.302 3.92 107.337 3.92C108.094 3.92 108.734 4.15467 109.257 4.624V1.456C109.257 1.08267 109.241 0.864 109.209 0.799999C109.177 0.735999 109.075 0.693333 108.905 0.672L108.025 0.591999V0.16H110.569V10.704C110.569 11.0773 110.585 11.296 110.617 11.36C110.649 11.424 110.75 11.4667 110.921 11.488L111.801 11.6ZM105.449 8.688C105.449 9.69067 105.593 10.4267 105.881 10.896C106.179 11.3653 106.59 11.6 107.113 11.6C107.454 11.6 107.806 11.4933 108.169 11.28C108.531 11.0667 108.894 10.6347 109.257 9.984V5.408C108.787 4.77867 108.174 4.464 107.417 4.464C106.734 4.464 106.233 4.72533 105.913 5.248C105.603 5.77067 105.449 6.49067 105.449 7.408V8.688ZM121.37 11.584V12H118.906V10.72C118.533 11.2213 118.106 11.5893 117.626 11.824C117.157 12.048 116.687 12.16 116.218 12.16C115.461 12.16 114.869 11.92 114.442 11.44C114.026 10.9493 113.818 10.2613 113.818 9.376V5.376C113.818 5.00267 113.802 4.784 113.77 4.72C113.738 4.656 113.637 4.61333 113.466 4.592L112.586 4.512V4.08H115.13V9.36C115.13 10.1493 115.247 10.7093 115.482 11.04C115.727 11.36 116.079 11.52 116.538 11.52C116.879 11.52 117.253 11.4133 117.658 11.2C118.074 10.9867 118.463 10.576 118.826 9.968V5.376C118.826 5.00267 118.81 4.784 118.778 4.72C118.746 4.64533 118.645 4.60267 118.474 4.592L117.274 4.512V4.08H120.138V10.704C120.138 11.0773 120.154 11.296 120.186 11.36C120.218 11.424 120.319 11.4667 120.49 11.488L121.37 11.584ZM123.876 12.16C123.609 12.16 123.391 12.0747 123.22 11.904C123.06 11.7333 122.98 11.5147 122.98 11.248C122.98 10.9813 123.06 10.768 123.22 10.608C123.391 10.4373 123.609 10.352 123.876 10.352C124.153 10.352 124.377 10.4373 124.548 10.608C124.719 10.768 124.804 10.9813 124.804 11.248C124.804 11.5147 124.719 11.7333 124.548 11.904C124.377 12.0747 124.153 12.16 123.876 12.16ZM129.858 8.768L128.882 8.528C127.549 8.18667 126.882 7.41867 126.882 6.224C126.882 5.82933 126.973 5.456 127.154 5.104C127.335 4.752 127.623 4.46933 128.018 4.256C128.423 4.032 128.941 3.92 129.57 3.92C130.274 3.92 130.839 4.03733 131.266 4.272C131.693 4.50667 131.991 4.81067 132.162 5.184C132.333 5.55733 132.386 5.96267 132.322 6.4L131.074 6.624C131.202 5.93067 131.127 5.392 130.85 5.008C130.583 4.624 130.141 4.432 129.522 4.432C129.042 4.432 128.658 4.55467 128.37 4.8C128.082 5.03467 127.938 5.38133 127.938 5.84C127.938 6.18133 128.045 6.48533 128.258 6.752C128.471 7.008 128.829 7.2 129.33 7.328L130.338 7.568C131.042 7.73867 131.586 8.01067 131.97 8.384C132.365 8.75733 132.562 9.248 132.562 9.856C132.562 10.5387 132.311 11.0933 131.81 11.52C131.319 11.9467 130.615 12.16 129.698 12.16C129.261 12.16 128.834 12.096 128.418 11.968C128.013 11.8293 127.655 11.616 127.346 11.328C127.047 11.0293 126.829 10.6453 126.69 10.176L127.586 9.856C127.703 10.528 127.959 10.9973 128.354 11.264C128.749 11.5307 129.202 11.664 129.714 11.664C130.013 11.664 130.295 11.616 130.562 11.52C130.839 11.424 131.063 11.2747 131.234 11.072C131.405 10.8587 131.49 10.5867 131.49 10.256C131.49 9.91467 131.373 9.62133 131.138 9.376C130.903 9.13067 130.477 8.928 129.858 8.768ZM140.652 12.112C139.82 12.112 139.329 11.728 139.18 10.96C138.807 11.3867 138.396 11.696 137.948 11.888C137.5 12.0693 137.057 12.16 136.62 12.16C135.873 12.16 135.324 11.952 134.972 11.536C134.62 11.12 134.444 10.6187 134.444 10.032C134.444 9.40267 134.657 8.90667 135.084 8.544C135.521 8.17067 136.273 7.984 137.34 7.984H139.148V6.688C139.148 5.83467 138.999 5.248 138.7 4.928C138.412 4.59733 138.017 4.432 137.516 4.432C137.196 4.432 136.908 4.496 136.652 4.624C136.396 4.752 136.209 4.98667 136.092 5.328C135.985 5.65867 135.975 6.144 136.06 6.784L134.796 6.592C134.743 6.09067 134.807 5.64267 134.988 5.248C135.18 4.84267 135.489 4.52267 135.916 4.288C136.353 4.04267 136.897 3.92 137.548 3.92C138.327 3.92 138.924 4.05333 139.34 4.32C139.756 4.576 140.044 4.912 140.204 5.328C140.375 5.744 140.46 6.19733 140.46 6.688V10.288C140.46 10.832 140.519 11.1733 140.636 11.312C140.764 11.4507 140.903 11.52 141.052 11.52C141.148 11.52 141.249 11.4987 141.356 11.456C141.463 11.4027 141.58 11.3227 141.708 11.216L141.996 11.616C141.836 11.7547 141.644 11.872 141.42 11.968C141.207 12.064 140.951 12.112 140.652 12.112ZM137.068 11.488C137.367 11.488 137.687 11.408 138.028 11.248C138.38 11.0773 138.753 10.7413 139.148 10.24V8.496H137.516C136.919 8.496 136.481 8.61867 136.204 8.864C135.937 9.09867 135.804 9.46667 135.804 9.968C135.804 10.448 135.905 10.8213 136.108 11.088C136.321 11.3547 136.641 11.488 137.068 11.488ZM144.573 2.288C144.317 2.288 144.103 2.208 143.933 2.048C143.773 1.87733 143.693 1.65867 143.693 1.392C143.693 1.136 143.773 0.927999 143.933 0.768C144.103 0.608 144.317 0.528 144.573 0.528C144.829 0.528 145.037 0.608 145.197 0.768C145.367 0.927999 145.453 1.136 145.453 1.392C145.453 1.65867 145.367 1.87733 145.197 2.048C145.037 2.208 144.829 2.288 144.573 2.288ZM142.701 4.512V4.08H145.245V10.704C145.245 11.0773 145.261 11.296 145.293 11.36C145.325 11.424 145.426 11.4667 145.597 11.488L146.477 11.584V12H142.701V11.584L143.581 11.488C143.751 11.4667 143.853 11.424 143.885 11.36C143.917 11.296 143.933 11.0773 143.933 10.704V5.376C143.933 5.00267 143.917 4.784 143.885 4.72C143.853 4.656 143.751 4.61333 143.581 4.592L142.701 4.512ZM152.762 10.368C152.602 10.9867 152.351 11.44 152.01 11.728C151.669 12.016 151.231 12.16 150.698 12.16C150.186 12.16 149.77 12.048 149.45 11.824C149.13 11.5893 148.895 11.2853 148.746 10.912C148.597 10.5387 148.522 10.1493 148.522 9.744V5.376C148.522 5.00267 148.506 4.784 148.474 4.72C148.453 4.656 148.351 4.61333 148.17 4.592L147.29 4.512V4.08H148.522V1.984L149.834 1.712V4.08H152.442V4.592H149.834V9.872C149.834 10.544 149.925 11.008 150.106 11.264C150.298 11.52 150.549 11.648 150.858 11.648C151.167 11.648 151.402 11.5307 151.562 11.296C151.733 11.0613 151.855 10.6773 151.93 10.144L152.762 10.368ZM155.157 12.16C154.891 12.16 154.672 12.0747 154.501 11.904C154.341 11.7333 154.261 11.5147 154.261 11.248C154.261 10.9813 154.341 10.768 154.501 10.608C154.672 10.4373 154.891 10.352 155.157 10.352C155.435 10.352 155.659 10.4373 155.829 10.608C156 10.768 156.085 10.9813 156.085 11.248C156.085 11.5147 156 11.7333 155.829 11.904C155.659 12.0747 155.435 12.16 155.157 12.16ZM161.288 4.432C160.702 4.432 160.243 4.67733 159.912 5.168C159.592 5.648 159.432 6.44267 159.432 7.552V8.512C159.432 9.632 159.592 10.4373 159.912 10.928C160.243 11.408 160.776 11.648 161.512 11.648C162.014 11.648 162.419 11.52 162.728 11.264C163.038 11.008 163.246 10.5653 163.352 9.936L164.2 10.176C164.008 10.9013 163.656 11.4133 163.144 11.712C162.632 12.0107 162.062 12.16 161.432 12.16C160.28 12.16 159.416 11.8027 158.84 11.088C158.275 10.3627 157.992 9.39733 157.992 8.192V7.872C157.992 6.67733 158.275 5.72267 158.84 5.008C159.406 4.28267 160.222 3.92 161.288 3.92C161.971 3.92 162.536 4.05333 162.984 4.32C163.443 4.58667 163.768 4.94933 163.96 5.408C164.152 5.856 164.206 6.352 164.12 6.896L162.856 7.088C162.974 6.23467 162.894 5.57867 162.616 5.12C162.35 4.66133 161.907 4.432 161.288 4.432ZM172.168 12.112C171.336 12.112 170.845 11.728 170.696 10.96C170.322 11.3867 169.912 11.696 169.464 11.888C169.016 12.0693 168.573 12.16 168.136 12.16C167.389 12.16 166.84 11.952 166.488 11.536C166.136 11.12 165.96 10.6187 165.96 10.032C165.96 9.40267 166.173 8.90667 166.6 8.544C167.037 8.17067 167.789 7.984 168.856 7.984H170.664V6.688C170.664 5.83467 170.514 5.248 170.216 4.928C169.928 4.59733 169.533 4.432 169.032 4.432C168.712 4.432 168.424 4.496 168.168 4.624C167.912 4.752 167.725 4.98667 167.608 5.328C167.501 5.65867 167.49 6.144 167.576 6.784L166.312 6.592C166.258 6.09067 166.322 5.64267 166.504 5.248C166.696 4.84267 167.005 4.52267 167.432 4.288C167.869 4.04267 168.413 3.92 169.064 3.92C169.842 3.92 170.44 4.05333 170.856 4.32C171.272 4.576 171.56 4.912 171.72 5.328C171.89 5.744 171.976 6.19733 171.976 6.688V10.288C171.976 10.832 172.034 11.1733 172.152 11.312C172.28 11.4507 172.418 11.52 172.568 11.52C172.664 11.52 172.765 11.4987 172.872 11.456C172.978 11.4027 173.096 11.3227 173.224 11.216L173.512 11.616C173.352 11.7547 173.16 11.872 172.936 11.968C172.722 12.064 172.466 12.112 172.168 12.112ZM168.584 11.488C168.882 11.488 169.202 11.408 169.544 11.248C169.896 11.0773 170.269 10.7413 170.664 10.24V8.496H169.032C168.434 8.496 167.997 8.61867 167.72 8.864C167.453 9.09867 167.32 9.46667 167.32 9.968C167.32 10.448 167.421 10.8213 167.624 11.088C167.837 11.3547 168.157 11.488 168.584 11.488Z" fill="white"/>
</svg>
