<svg width="220" height="20" viewBox="0 0 220 20" fill="none" xmlns="http://www.w3.org/2000/svg">
  <path
    d="M0.56 0.739999V0.2H3.74V13.38C3.74 13.8467 3.76 14.12 3.8 14.2C3.84 14.28 3.96667 14.3333 4.18 14.36L5.28 14.48V15H0.56V14.48L1.66 14.36C1.87333 14.3333 2 14.28 2.04 14.2C2.08 14.12 2.1 13.8467 2.1 13.38V1.82C2.1 1.35333 2.08 1.08 2.04 0.999999C2 0.919999 1.87333 0.866666 1.66 0.84L0.56 0.739999ZM14.7994 15.14C13.7594 15.14 13.146 14.66 12.9594 13.7C12.4927 14.2333 11.9794 14.62 11.4194 14.86C10.8594 15.0867 10.306 15.2 9.75938 15.2C8.82604 15.2 8.13938 14.94 7.69938 14.42C7.25938 13.9 7.03938 13.2733 7.03938 12.54C7.03938 11.7533 7.30604 11.1333 7.83938 10.68C8.38604 10.2133 9.32604 9.98 10.6594 9.98H12.9194V8.36C12.9194 7.29333 12.7327 6.56 12.3594 6.16C11.9994 5.74667 11.506 5.54 10.8794 5.54C10.4794 5.54 10.1194 5.62 9.79938 5.78C9.47938 5.94 9.24604 6.23333 9.09938 6.66C8.96604 7.07333 8.95271 7.68 9.05938 8.48L7.47938 8.24C7.41271 7.61333 7.49271 7.05333 7.71938 6.56C7.95938 6.05333 8.34604 5.65333 8.87938 5.36C9.42604 5.05333 10.106 4.9 10.9194 4.9C11.8927 4.9 12.6394 5.06667 13.1594 5.4C13.6794 5.72 14.0394 6.14 14.2394 6.66C14.4527 7.18 14.5594 7.74667 14.5594 8.36V12.86C14.5594 13.54 14.6327 13.9667 14.7794 14.14C14.9394 14.3133 15.1127 14.4 15.2994 14.4C15.4194 14.4 15.546 14.3733 15.6794 14.32C15.8127 14.2533 15.9594 14.1533 16.1194 14.02L16.4794 14.52C16.2794 14.6933 16.0394 14.84 15.7594 14.96C15.4927 15.08 15.1727 15.14 14.7994 15.14ZM10.3194 14.36C10.6927 14.36 11.0927 14.26 11.5194 14.06C11.9594 13.8467 12.426 13.4267 12.9194 12.8V10.62H10.8794C10.1327 10.62 9.58604 10.7733 9.23938 11.08C8.90604 11.3733 8.73938 11.8333 8.73938 12.46C8.73938 13.06 8.86604 13.5267 9.11938 13.86C9.38604 14.1933 9.78604 14.36 10.3194 14.36ZM17.3602 5.64V5.1H20.4402V6.7C20.9068 6.07333 21.3735 5.62 21.8402 5.34C22.3202 5.04667 22.8068 4.9 23.3002 4.9C23.7268 4.9 24.1268 5.02667 24.5002 5.28C24.8735 5.53333 25.1868 5.94 25.4402 6.5L24.1402 7.28C23.9402 6.8 23.7135 6.46667 23.4602 6.28C23.2068 6.09333 22.9268 6 22.6202 6C22.2868 6 21.9535 6.10667 21.6202 6.32C21.3002 6.53333 20.9402 6.93333 20.5402 7.52V13.38C20.5402 13.8467 20.5602 14.1267 20.6002 14.22C20.6402 14.3 20.7668 14.3467 20.9802 14.36L22.4802 14.48V15H17.3602V14.48L18.4602 14.36C18.6735 14.3333 18.8002 14.28 18.8402 14.2C18.8802 14.12 18.9002 13.8467 18.9002 13.38V6.72C18.9002 6.25333 18.8802 5.98 18.8402 5.9C18.8002 5.82 18.6735 5.76667 18.4602 5.74L17.3602 5.64ZM36.8492 14.48V15H33.7692V13.4C33.3026 14.0267 32.7692 14.4867 32.1692 14.78C31.5826 15.06 30.9959 15.2 30.4092 15.2C29.4626 15.2 28.7226 14.9 28.1892 14.3C27.6692 13.6867 27.4092 12.8267 27.4092 11.72V6.72C27.4092 6.25333 27.3892 5.98 27.3492 5.9C27.3092 5.82 27.1826 5.76667 26.9692 5.74L25.8692 5.64V5.1H29.0492V11.7C29.0492 12.6867 29.1959 13.3867 29.4892 13.8C29.7959 14.2 30.2359 14.4 30.8092 14.4C31.2359 14.4 31.7026 14.2667 32.2092 14C32.7292 13.7333 33.2159 13.22 33.6692 12.46V6.72C33.6692 6.25333 33.6492 5.98 33.6092 5.9C33.5692 5.80667 33.4426 5.75333 33.2292 5.74L31.7292 5.64V5.1H35.3092V13.38C35.3092 13.8467 35.3292 14.12 35.3692 14.2C35.4092 14.28 35.5359 14.3333 35.7492 14.36L36.8492 14.48ZM46.6419 12.72C46.4019 13.6267 45.9485 14.2667 45.2819 14.64C44.6285 15.0133 43.9019 15.2 43.1019 15.2C41.6219 15.2 40.5152 14.7533 39.7819 13.86C39.0485 12.9533 38.6819 11.7467 38.6819 10.24V9.84C38.6819 8.34667 39.0352 7.15333 39.7419 6.26C40.4485 5.35333 41.4752 4.9 42.8219 4.9C43.5419 4.9 44.1952 5.04667 44.7819 5.34C45.3819 5.63333 45.8552 6.06667 46.2019 6.64C46.5619 7.21333 46.7419 7.92667 46.7419 8.78C46.7419 9.18 46.7019 9.6 46.6219 10.04H40.4819V10.64C40.4819 12.04 40.6952 13.0467 41.1219 13.66C41.5619 14.26 42.2685 14.56 43.2419 14.56C43.8552 14.56 44.3619 14.4 44.7619 14.08C45.1752 13.76 45.4485 13.2067 45.5819 12.42L46.6419 12.72ZM42.8219 5.54C42.0352 5.54 41.4485 5.84 41.0619 6.44C40.6752 7.04 40.4819 8.02667 40.4819 9.4H44.9819V9.34C45.0085 9.16667 45.0285 9 45.0419 8.84C45.0552 8.66667 45.0619 8.51333 45.0619 8.38C45.0619 7.38 44.8552 6.66 44.4419 6.22C44.0285 5.76667 43.4885 5.54 42.8219 5.54ZM50.8297 2.86C50.5097 2.86 50.243 2.76 50.0297 2.56C49.8297 2.34667 49.7297 2.07333 49.7297 1.74C49.7297 1.42 49.8297 1.16 50.0297 0.96C50.243 0.76 50.5097 0.66 50.8297 0.66C51.1497 0.66 51.4097 0.76 51.6097 0.96C51.823 1.16 51.9297 1.42 51.9297 1.74C51.9297 2.07333 51.823 2.34667 51.6097 2.56C51.4097 2.76 51.1497 2.86 50.8297 2.86ZM48.4897 5.64V5.1H51.6697V16.04C51.6697 16.64 51.5697 17.2 51.3697 17.72C51.183 18.24 50.8697 18.66 50.4297 18.98C49.9897 19.3 49.4097 19.46 48.6897 19.46C48.0364 19.46 47.4764 19.28 47.0097 18.92C46.543 18.5733 46.2497 17.9733 46.1297 17.12L47.2097 16.82C47.263 17.5933 47.4097 18.12 47.6497 18.4C47.8897 18.68 48.1964 18.82 48.5697 18.82C49.0364 18.82 49.3964 18.6333 49.6497 18.26C49.903 17.9 50.0297 17.2133 50.0297 16.2V6.72C50.0297 6.25333 50.0097 5.98 49.9697 5.9C49.9297 5.82 49.803 5.76667 49.5897 5.74L48.4897 5.64ZM63.5328 9.84V10.24C63.5328 11.7467 63.1528 12.9533 62.3928 13.86C61.6461 14.7533 60.5795 15.2 59.1928 15.2C57.8195 15.2 56.7528 14.7533 55.9928 13.86C55.2461 12.9533 54.8728 11.7467 54.8728 10.24V9.84C54.8728 8.34667 55.2461 7.15333 55.9928 6.26C56.7395 5.35333 57.8061 4.9 59.1928 4.9C60.5795 4.9 61.6461 5.35333 62.3928 6.26C63.1528 7.15333 63.5328 8.34667 63.5328 9.84ZM61.7328 9.44C61.7328 8.05333 61.5128 7.06 61.0728 6.46C60.6461 5.84667 60.0195 5.54 59.1928 5.54C58.3795 5.54 57.7528 5.84667 57.3128 6.46C56.8861 7.06 56.6728 8.05333 56.6728 9.44V10.64C56.6728 12.04 56.8861 13.0467 57.3128 13.66C57.7528 14.26 58.3795 14.56 59.1928 14.56C60.0195 14.56 60.6461 14.26 61.0728 13.66C61.5128 13.0467 61.7328 12.04 61.7328 10.64V9.44ZM69.6856 10.96L68.4656 10.66C66.799 10.2333 65.9656 9.27333 65.9656 7.78C65.9656 7.28667 66.079 6.82 66.3056 6.38C66.5323 5.94 66.8923 5.58667 67.3856 5.32C67.8923 5.04 68.539 4.9 69.3256 4.9C70.2056 4.9 70.9123 5.04667 71.4456 5.34C71.979 5.63333 72.3523 6.01333 72.5656 6.48C72.779 6.94667 72.8456 7.45333 72.7656 8L71.2056 8.28C71.3656 7.41333 71.2723 6.74 70.9256 6.26C70.5923 5.78 70.039 5.54 69.2656 5.54C68.6656 5.54 68.1856 5.69333 67.8256 6C67.4656 6.29333 67.2856 6.72667 67.2856 7.3C67.2856 7.72667 67.419 8.10667 67.6856 8.44C67.9523 8.76 68.399 9 69.0256 9.16L70.2856 9.46C71.1656 9.67333 71.8456 10.0133 72.3256 10.48C72.819 10.9467 73.0656 11.56 73.0656 12.32C73.0656 13.1733 72.7523 13.8667 72.1256 14.4C71.5123 14.9333 70.6323 15.2 69.4856 15.2C68.939 15.2 68.4056 15.12 67.8856 14.96C67.379 14.7867 66.9323 14.52 66.5456 14.16C66.1723 13.7867 65.899 13.3067 65.7256 12.72L66.8456 12.32C66.9923 13.16 67.3123 13.7467 67.8056 14.08C68.299 14.4133 68.8656 14.58 69.5056 14.58C69.879 14.58 70.2323 14.52 70.5656 14.4C70.9123 14.28 71.1923 14.0933 71.4056 13.84C71.619 13.5733 71.7256 13.2333 71.7256 12.82C71.7256 12.3933 71.579 12.0267 71.2856 11.72C70.9923 11.4133 70.459 11.16 69.6856 10.96ZM85.9783 14.48V15H81.2583V14.48L82.3583 14.36C82.5716 14.3333 82.6983 14.28 82.7383 14.2C82.7783 14.12 82.7983 13.8467 82.7983 13.38V8.4C82.7983 7.41333 82.6383 6.72 82.3183 6.32C81.9983 5.90667 81.5449 5.7 80.9583 5.7C80.5049 5.7 80.0116 5.83333 79.4783 6.1C78.9449 6.36667 78.4449 6.89333 77.9783 7.68V13.38C77.9783 13.8467 77.9983 14.12 78.0383 14.2C78.0783 14.28 78.2049 14.3333 78.4183 14.36L79.5183 14.48V15H74.7983V14.48L75.8983 14.36C76.1116 14.3333 76.2383 14.28 76.2783 14.2C76.3183 14.12 76.3383 13.8467 76.3383 13.38V1.82C76.3383 1.35333 76.3183 1.08 76.2783 0.999999C76.2383 0.919999 76.1116 0.866666 75.8983 0.84L74.7983 0.739999V0.2H77.9783V6.62C78.4449 6.02 78.9783 5.58667 79.5783 5.32C80.1783 5.04 80.7716 4.9 81.3583 4.9C82.3449 4.9 83.1049 5.20667 83.6383 5.82C84.1716 6.42 84.4383 7.27333 84.4383 8.38V13.38C84.4383 13.8467 84.4583 14.12 84.4983 14.2C84.5383 14.28 84.6649 14.3333 84.8783 14.36L85.9783 14.48ZM101.265 18.34C100.532 18.7133 99.7053 18.9933 98.7853 19.18C97.8786 19.3667 97.012 19.46 96.1853 19.46C94.892 19.46 93.7253 19.24 92.6853 18.8C91.6453 18.3733 90.752 17.7667 90.0053 16.98C89.2586 16.2067 88.6853 15.2867 88.2853 14.22C87.8853 13.1533 87.6853 11.9867 87.6853 10.72C87.6853 9.37333 87.8986 8.12667 88.3253 6.98C88.752 5.82 89.352 4.81333 90.1253 3.96C90.912 3.09333 91.8386 2.42 92.9053 1.94C93.9853 1.44667 95.1653 1.2 96.4453 1.2C97.6186 1.2 98.6986 1.41333 99.6853 1.84C100.672 2.25333 101.532 2.83333 102.265 3.58C102.999 4.32667 103.565 5.2 103.965 6.2C104.365 7.2 104.565 8.28 104.565 9.44C104.565 10.4933 104.379 11.4467 104.005 12.3C103.645 13.14 103.145 13.8067 102.505 14.3C101.879 14.7933 101.159 15.04 100.345 15.04C99.7053 15.04 99.1586 14.88 98.7053 14.56C98.2653 14.2267 97.992 13.7533 97.8853 13.14C97.432 13.8467 96.952 14.36 96.4453 14.68C95.952 14.9867 95.432 15.14 94.8853 15.14C94.1786 15.14 93.5853 14.92 93.1053 14.48C92.6386 14.04 92.312 13.44 92.1253 12.68C91.952 11.9067 91.952 11.04 92.1253 10.08L92.2053 9.64C92.3653 8.77333 92.652 8.03333 93.0653 7.42C93.492 6.80667 93.992 6.34 94.5653 6.02C95.152 5.68667 95.772 5.52 96.4253 5.52C97.012 5.52 97.5053 5.64667 97.9053 5.9C98.3186 6.14 98.6653 6.46667 98.9453 6.88C99.3186 6.50667 99.6453 6.12 99.9253 5.72H100.625L99.5053 11.94C99.3853 12.62 99.3586 13.14 99.4253 13.5C99.492 13.8467 99.6186 14.0867 99.8053 14.22C99.992 14.3533 100.205 14.42 100.445 14.42C101.059 14.42 101.625 14.2067 102.145 13.78C102.665 13.3533 103.085 12.7667 103.405 12.02C103.725 11.2733 103.885 10.4133 103.885 9.44C103.885 8.37333 103.699 7.38 103.325 6.46C102.965 5.54 102.452 4.73333 101.785 4.04C101.119 3.34667 100.332 2.80667 99.4253 2.42C98.5186 2.03333 97.5253 1.84 96.4453 1.84C95.2586 1.84 94.172 2.06667 93.1853 2.52C92.1986 2.97333 91.3453 3.60667 90.6253 4.42C89.9053 5.22 89.3453 6.16 88.9453 7.24C88.5586 8.32 88.3653 9.48 88.3653 10.72C88.3653 12.2933 88.6853 13.6933 89.3253 14.92C89.9653 16.1333 90.872 17.0867 92.0453 17.78C93.2186 18.4733 94.5986 18.82 96.1853 18.82C96.932 18.82 97.712 18.72 98.5253 18.52C99.352 18.32 100.132 17.94 100.865 17.38L101.265 18.34ZM93.7053 10.68C93.492 11.9333 93.5253 12.8867 93.8053 13.54C94.0853 14.18 94.4986 14.5 95.0453 14.5C95.3253 14.5 95.612 14.4333 95.9053 14.3C96.212 14.1533 96.532 13.8867 96.8653 13.5C97.212 13.1 97.572 12.5267 97.9453 11.78L98.6653 7.68C98.1586 6.66667 97.4453 6.16 96.5253 6.16C95.792 6.16 95.212 6.46 94.7853 7.06C94.372 7.64667 94.0786 8.45333 93.9053 9.48L93.7053 10.68ZM115.642 9.84V10.24C115.642 11.7467 115.262 12.9533 114.502 13.86C113.756 14.7533 112.689 15.2 111.302 15.2C109.929 15.2 108.862 14.7533 108.102 13.86C107.356 12.9533 106.982 11.7467 106.982 10.24V9.84C106.982 8.34667 107.356 7.15333 108.102 6.26C108.849 5.35333 109.916 4.9 111.302 4.9C112.689 4.9 113.756 5.35333 114.502 6.26C115.262 7.15333 115.642 8.34667 115.642 9.84ZM113.842 9.44C113.842 8.05333 113.622 7.06 113.182 6.46C112.756 5.84667 112.129 5.54 111.302 5.54C110.489 5.54 109.862 5.84667 109.422 6.46C108.996 7.06 108.782 8.05333 108.782 9.44V10.64C108.782 12.04 108.996 13.0467 109.422 13.66C109.862 14.26 110.489 14.56 111.302 14.56C112.129 14.56 112.756 14.26 113.182 13.66C113.622 13.0467 113.842 12.04 113.842 10.64V9.44ZM128.275 14.48V15H125.195V13.4C124.728 14.0267 124.195 14.4867 123.595 14.78C123.008 15.06 122.422 15.2 121.835 15.2C120.888 15.2 120.148 14.9 119.615 14.3C119.095 13.6867 118.835 12.8267 118.835 11.72V6.72C118.835 6.25333 118.815 5.98 118.775 5.9C118.735 5.82 118.608 5.76667 118.395 5.74L117.295 5.64V5.1H120.475V11.7C120.475 12.6867 120.622 13.3867 120.915 13.8C121.222 14.2 121.662 14.4 122.235 14.4C122.662 14.4 123.128 14.2667 123.635 14C124.155 13.7333 124.642 13.22 125.095 12.46V6.72C125.095 6.25333 125.075 5.98 125.035 5.9C124.995 5.80667 124.868 5.75333 124.655 5.74L123.155 5.64V5.1H126.735V13.38C126.735 13.8467 126.755 14.12 126.795 14.2C126.835 14.28 126.962 14.3333 127.175 14.36L128.275 14.48ZM136.148 12.96C135.948 13.7333 135.634 14.3 135.208 14.66C134.781 15.02 134.234 15.2 133.568 15.2C132.928 15.2 132.408 15.06 132.008 14.78C131.608 14.4867 131.314 14.1067 131.128 13.64C130.941 13.1733 130.848 12.6867 130.848 12.18V6.72C130.848 6.25333 130.828 5.98 130.788 5.9C130.761 5.82 130.634 5.76667 130.408 5.74L129.308 5.64V5.1H130.848V2.48L132.488 2.14V5.1H135.748V5.74H132.488V12.34C132.488 13.18 132.601 13.76 132.828 14.08C133.068 14.4 133.381 14.56 133.768 14.56C134.154 14.56 134.448 14.4133 134.648 14.12C134.861 13.8267 135.014 13.3467 135.108 12.68L136.148 12.96ZM137.142 0.739999V0.2H140.322V13.38C140.322 13.8467 140.342 14.12 140.382 14.2C140.422 14.28 140.549 14.3333 140.762 14.36L141.862 14.48V15H137.142V14.48L138.242 14.36C138.455 14.3333 138.582 14.28 138.622 14.2C138.662 14.12 138.682 13.8467 138.682 13.38V1.82C138.682 1.35333 138.662 1.08 138.622 0.999999C138.582 0.919999 138.455 0.866666 138.242 0.84L137.142 0.739999ZM152.341 9.84V10.24C152.341 11.7467 151.961 12.9533 151.201 13.86C150.455 14.7533 149.388 15.2 148.001 15.2C146.628 15.2 145.561 14.7533 144.801 13.86C144.055 12.9533 143.681 11.7467 143.681 10.24V9.84C143.681 8.34667 144.055 7.15333 144.801 6.26C145.548 5.35333 146.615 4.9 148.001 4.9C149.388 4.9 150.455 5.35333 151.201 6.26C151.961 7.15333 152.341 8.34667 152.341 9.84ZM150.541 9.44C150.541 8.05333 150.321 7.06 149.881 6.46C149.455 5.84667 148.828 5.54 148.001 5.54C147.188 5.54 146.561 5.84667 146.121 6.46C145.695 7.06 145.481 8.05333 145.481 9.44V10.64C145.481 12.04 145.695 13.0467 146.121 13.66C146.561 14.26 147.188 14.56 148.001 14.56C148.828 14.56 149.455 14.26 149.881 13.66C150.321 13.0467 150.541 12.04 150.541 10.64V9.44ZM163.474 9.84V10.24C163.474 11.7467 163.094 12.9533 162.334 13.86C161.588 14.7533 160.521 15.2 159.134 15.2C157.761 15.2 156.694 14.7533 155.934 13.86C155.188 12.9533 154.814 11.7467 154.814 10.24V9.84C154.814 8.34667 155.188 7.15333 155.934 6.26C156.681 5.35333 157.748 4.9 159.134 4.9C160.521 4.9 161.588 5.35333 162.334 6.26C163.094 7.15333 163.474 8.34667 163.474 9.84ZM161.674 9.44C161.674 8.05333 161.454 7.06 161.014 6.46C160.588 5.84667 159.961 5.54 159.134 5.54C158.321 5.54 157.694 5.84667 157.254 6.46C156.828 7.06 156.614 8.05333 156.614 9.44V10.64C156.614 12.04 156.828 13.0467 157.254 13.66C157.694 14.26 158.321 14.56 159.134 14.56C159.961 14.56 160.588 14.26 161.014 13.66C161.454 13.0467 161.674 12.04 161.674 10.64V9.44ZM165.267 0.739999V0.2H168.447V10.44L172.227 6.6C172.614 6.21333 172.82 5.98 172.847 5.9C172.874 5.82 172.774 5.76667 172.547 5.74L171.527 5.64V5.1H175.387V5.64L174.367 5.74C174.247 5.75333 174.147 5.78 174.067 5.82C173.987 5.84667 173.88 5.92 173.747 6.04C173.627 6.14667 173.434 6.33333 173.167 6.6L170.967 8.82L173.907 13.5C174.08 13.7667 174.207 13.96 174.287 14.08C174.38 14.1867 174.467 14.26 174.547 14.3C174.627 14.3267 174.734 14.3467 174.867 14.36L175.907 14.48V15H172.887L169.847 9.96L168.447 11.38V13.38C168.447 13.8467 168.467 14.12 168.507 14.2C168.547 14.28 168.674 14.3333 168.887 14.36L169.987 14.48V15H165.267V14.48L166.367 14.36C166.58 14.3333 166.707 14.28 166.747 14.2C166.787 14.12 166.807 13.8467 166.807 13.38V1.82C166.807 1.35333 166.787 1.08 166.747 0.999999C166.707 0.919999 166.58 0.866666 166.367 0.84L165.267 0.739999ZM178.498 15.2C178.164 15.2 177.891 15.0933 177.678 14.88C177.478 14.6667 177.378 14.3933 177.378 14.06C177.378 13.7267 177.478 13.46 177.678 13.26C177.891 13.0467 178.164 12.94 178.498 12.94C178.844 12.94 179.124 13.0467 179.338 13.26C179.551 13.46 179.658 13.7267 179.658 14.06C179.658 14.3933 179.551 14.6667 179.338 14.88C179.124 15.0933 178.844 15.2 178.498 15.2ZM186.161 5.54C185.428 5.54 184.855 5.84667 184.441 6.46C184.041 7.06 183.841 8.05333 183.841 9.44V10.64C183.841 12.04 184.041 13.0467 184.441 13.66C184.855 14.26 185.521 14.56 186.441 14.56C187.068 14.56 187.575 14.4 187.961 14.08C188.348 13.76 188.608 13.2067 188.741 12.42L189.801 12.72C189.561 13.6267 189.121 14.2667 188.481 14.64C187.841 15.0133 187.128 15.2 186.341 15.2C184.901 15.2 183.821 14.7533 183.101 13.86C182.395 12.9533 182.041 11.7467 182.041 10.24V9.84C182.041 8.34667 182.395 7.15333 183.101 6.26C183.808 5.35333 184.828 4.9 186.161 4.9C187.015 4.9 187.721 5.06667 188.281 5.4C188.855 5.73333 189.261 6.18667 189.501 6.76C189.741 7.32 189.808 7.94 189.701 8.62L188.121 8.86C188.268 7.79333 188.168 6.97333 187.821 6.4C187.488 5.82667 186.935 5.54 186.161 5.54ZM200.72 9.84V10.24C200.72 11.7467 200.34 12.9533 199.58 13.86C198.834 14.7533 197.767 15.2 196.38 15.2C195.007 15.2 193.94 14.7533 193.18 13.86C192.434 12.9533 192.06 11.7467 192.06 10.24V9.84C192.06 8.34667 192.434 7.15333 193.18 6.26C193.927 5.35333 194.994 4.9 196.38 4.9C197.767 4.9 198.834 5.35333 199.58 6.26C200.34 7.15333 200.72 8.34667 200.72 9.84ZM198.92 9.44C198.92 8.05333 198.7 7.06 198.26 6.46C197.834 5.84667 197.207 5.54 196.38 5.54C195.567 5.54 194.94 5.84667 194.5 6.46C194.074 7.06 193.86 8.05333 193.86 9.44V10.64C193.86 12.04 194.074 13.0467 194.5 13.66C194.94 14.26 195.567 14.56 196.38 14.56C197.207 14.56 197.834 14.26 198.26 13.66C198.7 13.0467 198.92 12.04 198.92 10.64V9.44ZM213.633 14.48V15H208.913V14.48L210.013 14.36C210.226 14.3333 210.353 14.28 210.393 14.2C210.433 14.12 210.453 13.8467 210.453 13.38V8.4C210.453 7.41333 210.3 6.72 209.993 6.32C209.7 5.90667 209.266 5.7 208.693 5.7C208.28 5.7 207.813 5.83333 207.293 6.1C206.786 6.36667 206.3 6.88 205.833 7.64V13.38C205.833 13.8467 205.853 14.12 205.893 14.2C205.933 14.28 206.06 14.3333 206.273 14.36L207.373 14.48V15H202.653V14.48L203.753 14.36C203.966 14.3333 204.093 14.28 204.133 14.2C204.173 14.12 204.193 13.8467 204.193 13.38V6.72C204.193 6.25333 204.173 5.98 204.133 5.9C204.093 5.82 203.966 5.76667 203.753 5.74L202.653 5.64V5.1H205.733V6.72C206.2 6.09333 206.726 5.63333 207.313 5.34C207.913 5.04667 208.506 4.9 209.093 4.9C210.533 4.9 211.46 5.56 211.873 6.88C212.366 6.18667 212.913 5.68667 213.513 5.38C214.126 5.06 214.74 4.9 215.353 4.9C216.3 4.9 217.033 5.20667 217.553 5.82C218.086 6.42 218.353 7.27333 218.353 8.38V13.38C218.353 13.8467 218.373 14.12 218.413 14.2C218.453 14.28 218.58 14.3333 218.793 14.36L219.893 14.48V15H215.173V14.48L216.273 14.36C216.486 14.3333 216.613 14.28 216.653 14.2C216.693 14.12 216.713 13.8467 216.713 13.38V8.4C216.713 7.41333 216.56 6.72 216.253 6.32C215.96 5.90667 215.526 5.7 214.953 5.7C214.54 5.7 214.066 5.84 213.533 6.12C213.013 6.38667 212.52 6.91333 212.053 7.7C212.066 7.80667 212.073 7.92 212.073 8.04C212.086 8.14667 212.093 8.26 212.093 8.38V13.38C212.093 13.8467 212.113 14.12 212.153 14.2C212.193 14.28 212.32 14.3333 212.533 14.36L213.633 14.48Z"
    fill="#ECE6C4" />
</svg>

